<svg id="Capa_1" enable-background="new 0 0 512 512" height="512" viewBox="0 0 512 512" width="512" xmlns="http://www.w3.org/2000/svg"><g><g clip-rule="evenodd" fill-rule="evenodd"><path d="m294.768 17.325-281.623 46.403c-8.527 1.402-14.338 9.52-12.936 18.047l67.485 409.654c1.402 8.527 9.52 14.339 18.047 12.937l281.652-46.403c8.498-1.402 14.338-9.52 12.936-18.047l-67.515-409.654c-1.401-8.528-9.52-14.339-18.046-12.937z" fill="#ffc243"/><path d="m159.359 433.17c-2.278 21.873-5.023 42.139-8.176 60.42l216.21-35.627c3.125-.526 5.899-1.927 8.06-3.972h-15.535-149.252c-8.527 0-15.506-6.979-15.506-15.507v-11.214-39.57-75.547c-9.607-.088-19.273-1.227-28.881-3.563-.38 29.495-1.577 57.821-3.446 84.425-.992 13.902-2.16 27.306-3.474 40.155zm35.801-399.433-51.57 8.498c8.235 33.408 14.718 77.913 18.631 129.163l32.94 16.032v-153.693z" fill="#fea610"/><path d="m109.862 145.933c-5.402 45.06 56.944 102.968 85.299 133.135v33.087c-18.426-.146-37.145-4.293-54.87-12.908-62.698-30.517-89.096-105.392-58.989-167.243z" fill="#6fd7a3"/><path d="m109.862 145.933 85.299 41.497v91.638c-13.404-.292-26.983-3.417-39.861-9.695-46.373-22.574-66.347-77.416-45.438-123.44z" fill="#ec5469"/><path d="m195.16 187.43-32.94-16.032c1.372 17.93 2.453 36.678 3.154 56.098.263 6.95.467 13.959.642 21.055.175 8.381.321 16.85.38 25.406 9.461 3.241 19.156 4.906 28.764 5.11z" fill="#e5374e"/><path d="m195.16 279.068c-9.607-.204-19.302-1.869-28.764-5.11.029 4.088.058 8.177.058 12.324 0 7.505-.058 14.952-.175 22.311 9.607 2.336 19.273 3.475 28.881 3.563z" fill="#3ec3a4"/></g><g><path d="m112.423 409.067c-3.714 0-6.991-2.686-7.615-6.471-.694-4.21 2.157-8.186 6.367-8.88l82.728-13.638c4.208-.698 8.186 2.156 8.88 6.367.694 4.21-2.157 8.186-6.367 8.88l-82.728 13.638c-.425.07-.848.104-1.265.104z" fill="#3d595a"/></g><g><path d="m118.788 447.585c-3.715 0-6.991-2.686-7.615-6.471-.694-4.21 2.157-8.186 6.367-8.88l76.363-12.586c4.217-.697 8.186 2.156 8.88 6.367.694 4.21-2.157 8.186-6.367 8.88l-76.363 12.586c-.425.07-.848.104-1.265.104z" fill="#3d595a"/></g><g><path d="m165.281 235.399c-1.149 0-2.315-.257-3.414-.8-3.826-1.889-5.396-6.523-3.507-10.349l1.168-2.366c1.89-3.826 6.523-5.395 10.348-3.508 3.826 1.889 5.396 6.522 3.507 10.349l-1.168 2.366c-1.347 2.727-4.086 4.308-6.934 4.308z" fill="#3d595a"/></g><g><path d="m141.978 211.716c-1.149 0-2.315-.257-3.415-.8-3.826-1.889-5.395-6.523-3.506-10.349l1.168-2.365c1.89-3.826 6.521-5.396 10.349-3.507 3.826 1.889 5.395 6.523 3.506 10.349l-1.168 2.365c-1.347 2.726-4.086 4.307-6.934 4.307z" fill="#3d595a"/></g><path clip-rule="evenodd" d="m210.666 7.425h285.828c8.527 0 15.506 6.979 15.506 15.507v415.553c0 8.527-6.979 15.507-15.506 15.507h-285.828c-8.527 0-15.506-6.979-15.506-15.507v-415.553c0-8.527 6.979-15.507 15.506-15.507z" fill="#f9f7f8" fill-rule="evenodd"/><path clip-rule="evenodd" d="m470.563 270.541c-2.044 11.009-4.526 21.756-7.359 32.181-5.256 19.245-11.827 37.321-19.507 53.937-2.92 6.308-5.986 12.411-9.228 18.281-4.001 7.271-8.235 14.222-12.703 20.763-3.533 5.227-7.184 10.192-10.98 14.893-15.156 18.836-32.326 33.641-50.87 43.395h136.577c8.527 0 15.506-6.979 15.506-15.507v-11.214-39.57-75.547-33.087-91.636-153.693-10.805c0-8.527-6.979-15.507-15.506-15.507h-61.119c2.599 4.818 5.11 9.812 7.534 14.923 21.901 46.607 34.896 104.837 34.896 168.003 0 4.643-.088 9.257-.204 13.842-.701 22.953-3.124 45.176-7.037 66.348z" fill="#e5e1e5" fill-rule="evenodd"/><g><path d="m453.187 364.386h-199.243c-4.268 0-7.726-3.459-7.726-7.726s3.459-7.726 7.726-7.726h199.243c4.268 0 7.726 3.459 7.726 7.726s-3.458 7.726-7.726 7.726z" fill="#3d595a"/></g><g><path d="m331.357 403.43h-77.413c-4.268 0-7.726-3.459-7.726-7.726s3.459-7.726 7.726-7.726h77.413c4.268 0 7.726 3.459 7.726 7.726 0 4.266-3.458 7.726-7.726 7.726z" fill="#3d595a"/></g><g><path d="m453.187 403.43h-77.384c-4.268 0-7.726-3.459-7.726-7.726s3.459-7.726 7.726-7.726h77.384c4.268 0 7.726 3.459 7.726 7.726 0 4.266-3.458 7.726-7.726 7.726z" fill="#3d595a"/></g><path clip-rule="evenodd" d="m401.763 152.358c12.148 25.056 34.955 25.056 40.591 13.2 4.585-9.608-2.103-26.983-34.75-45.147l7.359-15.886c2.482-5.344.146-11.739-5.198-14.222l-7.826-3.65c-5.344-2.482-11.739-.146-14.221 5.198l-5.461 11.798-1.927 4.088c-34.955-13.2-52.534-7.096-56.914 2.57-5.432 11.973 9.286 29.378 36.298 22.515 3.183 6.6 8.673 11.973 15.156 15.565 8.175 4.526 17.957 6.249 26.893 3.971z" fill="#6fd7a3" fill-rule="evenodd"/><path clip-rule="evenodd" d="m400.215 134.135c1.811 1.256 25.756 10.951 28.501 39.132 6.162.029 11.33-2.862 13.637-7.709 4.585-9.608-2.103-26.983-34.75-45.147l7.359-15.886c2.482-5.344.146-11.739-5.198-14.222l-2.891-1.343-8.352 18.31c-6.044 12.673-9.023 19.243 1.694 26.865z" fill="#3ec3a4" fill-rule="evenodd"/><path clip-rule="evenodd" d="m401.763 152.358c-16.032 4.059-34.838-4.672-42.051-19.537-27.012 6.863-41.729-10.542-36.298-22.515-19.01 6.249-35.918 21.493-48.738 49.09-19.098 41.117-8.293 124.082 31.772 143.18 37.524 17.872 112.047-29.757 129.861-68.13 12.82-27.596 13.55-50.345 6.045-68.889-5.636 11.857-28.443 11.857-40.591-13.199z" fill="#ec5469" fill-rule="evenodd"/><path clip-rule="evenodd" d="m416.539 212.72c-9.403 20.237-34.546 43.045-61.733 57.471-24.384 12.937-50.402 19.128-68.157 10.659-1.548-.73-3.037-1.577-4.497-2.482 6.308 10.893 14.397 19.478 24.296 24.209 11.681 5.578 26.983 4.789 43.043-.117 35.422-10.805 74.552-41.614 86.817-68.013 12.82-27.596 13.55-50.345 6.045-68.889-2.307 4.848-7.476 7.739-13.637 7.709-.467-.029-.964-.029-1.431-.058-.642 11.885-4.029 25.055-10.746 39.511z" fill="#e5374e" fill-rule="evenodd"/><g><path d="m320.523 179.621c-4.268 0-7.726-3.459-7.726-7.726v-.409c0-4.267 3.459-7.726 7.726-7.726s7.726 3.459 7.726 7.726v.409c.001 4.266-3.458 7.726-7.726 7.726z" fill="#ffbc85"/></g><g><path d="m309.807 220.738c-4.268 0-7.726-3.459-7.726-7.726v-.409c0-4.267 3.459-7.726 7.726-7.726 4.268 0 7.726 3.459 7.726 7.726v.409c0 4.267-3.459 7.726-7.726 7.726z" fill="#ffbc85"/></g><g><path d="m327.357 260.307c-4.268 0-7.726-3.459-7.726-7.726v-.408c0-4.267 3.459-7.726 7.726-7.726s7.726 3.459 7.726 7.726v.408c0 4.267-3.458 7.726-7.726 7.726z" fill="#ffbc85"/></g><g><path d="m354.661 203.625c-4.268 0-7.726-3.459-7.726-7.726v-.409c0-4.267 3.459-7.726 7.726-7.726 4.268 0 7.726 3.459 7.726 7.726v.409c0 4.267-3.458 7.726-7.726 7.726z" fill="#ffbc85"/></g><g><path d="m396.34 215.453c-.185 0-.37-.007-.558-.02-4.256-.304-7.46-4-7.157-8.257l.029-.409c.304-4.257 3.976-7.465 8.258-7.157 4.256.304 7.46 4 7.157 8.257l-.029.409c-.291 4.069-3.683 7.177-7.7 7.177z" fill="#ffbc85"/></g><g><path d="m371.802 247.575c-4.268 0-7.726-3.459-7.726-7.726v-.409c0-4.267 3.459-7.726 7.726-7.726s7.726 3.459 7.726 7.726v.409c0 4.267-3.459 7.726-7.726 7.726z" fill="#ffbc85"/></g></g></svg>